<mxfile host="app.diagrams.net" modified="2023-11-13T16:51:22.091Z" agent="Mozilla/5.0 (Macintosh; Intel Mac OS X 10_15_7) AppleWebKit/605.1.15 (KHTML, like Gecko) Version/15.5 Safari/605.1.15" version="22.1.0" etag="qdBTdDWWzmKlGuNtUg9K" type="github">
  <diagram name="Pagina-1" id="QcWNHt8YzsOCoeC2v9Ii">
    <mxGraphModel>
      <root>
        <mxCell id="0" />
        <mxCell id="1" parent="0" />
      </root>
    </mxGraphModel>
  </diagram>
</mxfile>
